<?xml version="1.0" encoding="UTF-8" standalone="no"?>
<!-- Created with Inkscape (http://www.inkscape.org/) -->

<svg
   xmlns:dc="http://purl.org/dc/elements/1.1/"
   xmlns:cc="http://creativecommons.org/ns#"
   xmlns:rdf="http://www.w3.org/1999/02/22-rdf-syntax-ns#"
   xmlns:svg="http://www.w3.org/2000/svg"
   xmlns="http://www.w3.org/2000/svg"
   xmlns:sodipodi="http://sodipodi.sourceforge.net/DTD/sodipodi-0.dtd"
   xmlns:inkscape="http://www.inkscape.org/namespaces/inkscape"
   width="210mm"
   height="297mm"
   viewBox="0 0 744.09448 1052.3622"
   id="svg4382"
   version="1.1"
   inkscape:version="0.91 r13725"
   sodipodi:docname="_virus.svg">
  <defs
     id="defs4384" />
  <sodipodi:namedview
     id="base"
     pagecolor="#ffffff"
     bordercolor="#666666"
     borderopacity="1.0"
     inkscape:pageopacity="0.0"
     inkscape:pageshadow="2"
     inkscape:zoom="0.7"
     inkscape:cx="73.903262"
     inkscape:cy="567.46661"
     inkscape:document-units="px"
     inkscape:current-layer="layer1"
     showgrid="false"
     inkscape:window-width="1918"
     inkscape:window-height="1014"
     inkscape:window-x="0"
     inkscape:window-y="28"
     inkscape:window-maximized="1" />
  <metadata
     id="metadata4387">
    <rdf:RDF>
      <cc:Work
         rdf:about="">
        <dc:format>image/svg+xml</dc:format>
        <dc:type
           rdf:resource="http://purl.org/dc/dcmitype/StillImage" />
        <dc:title></dc:title>
      </cc:Work>
    </rdf:RDF>
  </metadata>
  <g
     inkscape:label="Layer 1"
     inkscape:groupmode="layer"
     id="layer1"
     transform="translate(0,-3.464567e-6)">
    <g
       id="g4234"
       transform="translate(-70.232033,-259.62831)">
      <path
         style="fill:#939393;fill-opacity:0.52307697;stroke:#000000;stroke-width:1.23699999;stroke-linejoin:bevel;stroke-miterlimit:4;stroke-dasharray:none;stroke-opacity:0.86082476"
         d="m 229.13263,442.61008 1.35452,-90.95906 84.22634,-48.98224 85.32984,50.09699 -0.45141,90.52929 -55.65282,49.18969 -58.30594,0.097 z"
         id="path4198"
         inkscape:connector-curvature="0"
         sodipodi:nodetypes="cccccccc" />
      <path
         sodipodi:nodetypes="ccc"
         inkscape:connector-curvature="0"
         id="path4211"
         d="m 230.23022,351.68864 84.6039,-15.81321 84.91334,16.89032"
         style="fill:none;fill-rule:evenodd;stroke:#000000;stroke-width:1px;stroke-linecap:butt;stroke-linejoin:miter;stroke-opacity:1" />
    </g>
    <path
       style="fill:none;fill-rule:evenodd;stroke:#000000;stroke-width:1px;stroke-linecap:butt;stroke-linejoin:miter;stroke-opacity:1"
       d="m 159.76796,182.7339 20,-10"
       id="path4203"
       inkscape:connector-curvature="0"
       sodipodi:nodetypes="cc" />
    <path
       style="fill:none;fill-rule:evenodd;stroke:#000000;stroke-width:1px;stroke-linecap:butt;stroke-linejoin:miter;stroke-opacity:1"
       d="m 309.51542,172.7339 -65.16589,-95.877076 -64.58157,95.877076 129.74746,0 c 0,0 22.27284,11.76776 19.74746,10.50507"
       id="path4209"
       inkscape:connector-curvature="0"
       sodipodi:nodetypes="ccccc" />
    <path
       style="fill:#939393;fill-opacity:0.52307697;stroke:#000000;stroke-width:0.62477934;stroke-linejoin:bevel;stroke-miterlimit:4;stroke-dasharray:none;stroke-opacity:0.62371132"
       d="m 159.87964,174.01273 c 0.0281,-4.23632 0.31222,-24.28655 0.63135,-44.55606 l 0.58022,-36.853646 40.91118,-7.65883 c 22.50115,-4.21236 40.9473,-7.62924 40.99145,-7.59307 0.0442,0.0362 -14.29266,21.40982 -31.85958,47.496986 l -31.93986,47.43121 -9.30413,4.69108 c -5.11727,2.58009 -9.47459,4.70315 -9.68294,4.71791 -0.20834,0.0148 -0.3558,-3.43925 -0.32769,-7.67558 z"
       id="path4252"
       inkscape:connector-curvature="0" />
    <path
       style="fill:#939393;fill-opacity:0.52307697;stroke:#000000;stroke-width:0.62477934;stroke-linejoin:bevel;stroke-miterlimit:4;stroke-dasharray:none;stroke-opacity:0.81958774"
       d="m 188.3709,207.95636 c -14.99771,-13.30313 -27.32869,-24.36794 -27.4022,-24.58845 -0.0735,-0.22052 4.07351,-2.50087 9.2156,-5.06746 l 9.34924,-4.66652 65.04621,0 65.0462,0 9.22791,4.88336 9.22791,4.88335 -1.42039,1.40398 c -0.7812,0.77218 -13.12552,11.75106 -27.4318,24.39749 l -26.01143,22.99353 -28.78935,-0.0259 -28.78935,-0.0259 -27.26855,-24.18752 0,-4e-5 z"
       id="path4254"
       inkscape:connector-curvature="0" />
    <path
       style="fill:none;fill-rule:evenodd;stroke:#000000;stroke-width:0.97070956px;stroke-linecap:butt;stroke-linejoin:miter;stroke-opacity:1"
       d="m 244.13661,76.218674 0.63135,-33.48477"
       id="path4256"
       inkscape:connector-curvature="0"
       sodipodi:nodetypes="cc" />
    <path
       style="fill:#939393;fill-opacity:0.52307697;stroke:#000000;stroke-width:0.22089286;stroke-linejoin:bevel;stroke-miterlimit:4;stroke-dasharray:none;stroke-opacity:0.4948454"
       d="m 164.76416,90.213794 c 0.37766,-0.21872 18.37766,-10.6904 40,-23.2704 21.62235,-12.57999 39.33814,-22.85432 39.36842,-22.83184 0.0528,0.0392 -0.46843,29.33371 -0.55079,30.95685 l -0.04,0.788 -39.46428,7.37839 c -21.70536,4.05812 -39.58482,7.37801 -39.73214,7.37754 -0.14733,-5.4e-4 0.0411,-0.17981 0.41878,-0.39854 z"
       id="path4258"
       inkscape:connector-curvature="0" />
    <path
       style="fill:#939393;fill-opacity:0.52307697;stroke:#000000;stroke-width:0.44178572;stroke-linejoin:bevel;stroke-miterlimit:4;stroke-dasharray:none;stroke-opacity:0.04123709"
       d="m 284.29207,83.500674 c -21.70536,-4.33197 -39.47517,-7.89651 -39.48848,-7.92121 -0.0868,-0.16105 0.61546,-30.75522 0.70805,-30.84781 0.0977,-0.0977 75.47094,44.01622 78.60186,46.00362 0.87032,0.55245 0.93736,0.6765 0.35714,0.6609 -0.39286,-0.0106 -18.47321,-3.56354 -40.17857,-7.8955 z"
       id="path4264"
       inkscape:connector-curvature="0" />
    <path
       style="fill:#939393;fill-opacity:0.52307697;stroke:#000000;stroke-width:0.44178572;stroke-linejoin:bevel;stroke-miterlimit:4;stroke-dasharray:none;stroke-opacity:0.04123709"
       d="m 166.07778,89.849494 c 0,-0.0821 1.64733,-1.0977 3.66072,-2.25679 4.18484,-2.40917 38.9923,-22.6556 59.85404,-34.81525 7.72775,-4.50427 14.1232,-8.11684 14.2121,-8.02794 0.21494,0.21494 -0.44823,30.58975 -0.67276,30.81429 -0.0961,0.0961 -3.53059,0.80022 -7.63225,1.56478 -4.10166,0.76456 -21.31142,3.97314 -38.24393,7.13018 -32.46378,6.05283 -31.17792,5.82226 -31.17792,5.59073 z"
       id="path4266"
       inkscape:connector-curvature="0" />
    <path
       style="fill:#939393;fill-opacity:0.52307697;stroke:#000000;stroke-width:0.44178572;stroke-linejoin:bevel;stroke-miterlimit:4;stroke-dasharray:none;stroke-opacity:0.04123709"
       d="m 195.3635,213.52349 c -34.15508,-30.35023 -33.77155,-29.9949 -32.99174,-30.56612 0.36867,-0.27006 4.47788,-2.41356 9.13157,-4.76334 l 8.46126,-4.27234 64.9316,0.0922 64.93159,0.0921 8.65482,4.64286 c 4.76015,2.55357 8.65747,4.72513 8.66072,4.82568 0.007,0.21056 -9.3052,8.53204 -35.52982,31.75054 l -18.57143,16.44259 -28.57143,0.002 -28.57143,0.002 -20.53571,-18.24773 z"
       id="path4268"
       inkscape:connector-curvature="0" />
    <path
       style="fill:#939393;fill-opacity:0.52307697;stroke:#000000;stroke-width:0.44178572;stroke-linejoin:bevel;stroke-miterlimit:4;stroke-dasharray:none;stroke-opacity:0.04123709"
       d="m 160.37075,174.19527 c 0.004,-3.78125 0.15532,-16.19643 0.3363,-27.58929 0.18098,-11.39285 0.44142,-28.11811 0.57875,-37.16723 l 0.24969,-16.452936 39.68186,-7.41957 c 21.82503,-4.08076 40.16401,-7.50924 40.75329,-7.61883 l 1.07143,-0.19927 -0.76862,0.67892 c -1.02714,0.90727 -7.75004,10.77213 -37.96443,55.707176 l -25.4742,37.8854 -9.05891,4.52532 c -4.9824,2.48892 -9.13845,4.52531 -9.23566,4.52531 -0.0972,0 -0.17349,-3.09375 -0.1695,-6.875 z"
       id="path4270"
       inkscape:connector-curvature="0" />
    <path
       style="fill:#939393;fill-opacity:0.52307697;stroke:#000000;stroke-width:0.44178572;stroke-linejoin:bevel;stroke-miterlimit:4;stroke-dasharray:none;stroke-opacity:0.04123709"
       d="m 202.12174,219.54235 c -7.57761,-6.72214 -18.81646,-16.72208 -24.97522,-22.22208 -6.15877,-5.5 -12.12053,-10.80357 -13.24835,-11.78571 -1.12783,-0.98215 -2.01161,-1.94643 -1.96396,-2.14286 0.0477,-0.19643 4.0932,-2.3969 8.99011,-4.88993 l 8.90346,-4.53279 65,0.0685 65,0.0685 8.65805,4.64286 c 4.76193,2.55357 8.65925,4.73785 8.66072,4.85396 0.002,0.19032 -13.69933,12.40598 -43.56877,38.84334 l -10.53571,9.32513 -28.57143,-0.004 -28.57143,-0.004 -13.77747,-12.22208 0,3e-4 z"
       id="path4272"
       inkscape:connector-curvature="0" />
    <path
       style="fill:#939393;fill-opacity:0.52307697;stroke:#000000;stroke-width:0.44178572;stroke-linejoin:bevel;stroke-miterlimit:4;stroke-dasharray:none;stroke-opacity:0.91237117"
       d="m 181.31152,171.69527 c 1.10319,-1.7851 62.41178,-92.684086 62.74439,-93.027766 0.33092,-0.34195 7.38245,9.79468 32.02669,46.038596 17.38128,25.5624 31.73085,46.69276 31.88793,46.95634 0.23848,0.40019 -10.20914,0.47926 -63.32465,0.47926 -50.79725,0 -63.55468,-0.0899 -63.33436,-0.44643 z"
       id="path4274"
       inkscape:connector-curvature="0" />
    <path
       style="fill:#939393;fill-opacity:0.52307697;stroke:#000000;stroke-width:0.44178572;stroke-linejoin:bevel;stroke-miterlimit:4;stroke-dasharray:none;stroke-opacity:0.06185566"
       d="m 319.20209,177.10354 -9.19711,-4.85958 -32.27275,-47.46185 C 259.98222,98.678104 245.49746,77.274094 245.54388,77.217644 c 0.0464,-0.0564 18.67571,3.5998 41.39842,8.125 22.72271,4.5252 41.4667,8.22763 41.65332,8.22763 0.3734,0 0.38535,37.946606 0.0219,69.464286 l -0.21829,18.92857 -9.19711,-4.85959 -2e-5,0 z"
       id="path4276"
       inkscape:connector-curvature="0" />
    <path
       style="fill:none;fill-rule:evenodd;stroke:#000000;stroke-width:1px;stroke-linecap:butt;stroke-linejoin:miter;stroke-opacity:1"
       d="m 214.76796,232.7339 0,10"
       id="path4278"
       inkscape:connector-curvature="0" />
    <path
       style="fill:none;fill-rule:evenodd;stroke:#000000;stroke-width:1px;stroke-linecap:butt;stroke-linejoin:miter;stroke-opacity:1"
       d="m 274.76796,232.7339 0,10 -60,0"
       id="path4280"
       inkscape:connector-curvature="0" />
    <path
       inkscape:connector-curvature="0"
       id="path4329"
       d="m 247.26797,379.16247 41.78571,-97.14286 49.28571,87.14286 2.14286,32.85714"
       style="fill:none;fill-rule:evenodd;stroke:#000000;stroke-width:2.29999995;stroke-linecap:butt;stroke-linejoin:miter;stroke-miterlimit:4;stroke-dasharray:none;stroke-opacity:1"
       sodipodi:nodetypes="cccc" />
    <path
       style="fill:none;fill-rule:evenodd;stroke:#000000;stroke-width:2.29999995;stroke-linecap:butt;stroke-linejoin:miter;stroke-miterlimit:4;stroke-dasharray:none;stroke-opacity:1"
       d="m 238.08917,380.59103 -35.71429,-97.85714 -46.42857,97.85714 -2.85714,25"
       id="path4335"
       inkscape:connector-curvature="0"
       sodipodi:nodetypes="cccc" />
    <path
       style="fill:none;fill-rule:evenodd;stroke:#000000;stroke-width:2.29999995;stroke-linecap:butt;stroke-linejoin:miter;stroke-miterlimit:4;stroke-dasharray:none;stroke-opacity:1"
       d="m 224.76796,242.7339 0,136.87057"
       id="path4286"
       inkscape:connector-curvature="0" />
    <path
       style="fill:none;fill-rule:evenodd;stroke:#000000;stroke-width:1.16991699px;stroke-linecap:butt;stroke-linejoin:miter;stroke-opacity:1"
       d="m 264.76796,242.7339 0,136.87057"
       id="path4288"
       inkscape:connector-curvature="0" />
    <rect
       style="fill:#939393;fill-opacity:0.52307697;stroke:#000000;stroke-width:1.10296082;stroke-linejoin:bevel;stroke-miterlimit:4;stroke-dasharray:none;stroke-opacity:1"
       id="rect4290"
       width="49.834038"
       height="6.9511218"
       x="219.85095"
       y="263.05164" />
    <rect
       y="276.95386"
       x="219.85095"
       height="6.9511218"
       width="49.834038"
       id="rect4292"
       style="fill:#939393;fill-opacity:0.52307697;stroke:#000000;stroke-width:1.10296082;stroke-linejoin:bevel;stroke-miterlimit:4;stroke-dasharray:none;stroke-opacity:1" />
    <rect
       style="fill:#939393;fill-opacity:0.52307697;stroke:#000000;stroke-width:1.10296082;stroke-linejoin:bevel;stroke-miterlimit:4;stroke-dasharray:none;stroke-opacity:1"
       id="rect4294"
       width="49.834038"
       height="6.9511218"
       x="219.85095"
       y="290.85608" />
    <rect
       y="304.7583"
       x="219.85095"
       height="6.9511218"
       width="49.834038"
       id="rect4296"
       style="fill:#939393;fill-opacity:0.52307697;stroke:#000000;stroke-width:1.10296082;stroke-linejoin:bevel;stroke-miterlimit:4;stroke-dasharray:none;stroke-opacity:1" />
    <rect
       style="fill:#939393;fill-opacity:0.52307697;stroke:#000000;stroke-width:1.10296082;stroke-linejoin:bevel;stroke-miterlimit:4;stroke-dasharray:none;stroke-opacity:1"
       id="rect4298"
       width="49.834038"
       height="6.9511218"
       x="219.85095"
       y="318.66055" />
    <rect
       y="332.56277"
       x="219.85095"
       height="6.9511218"
       width="49.834038"
       id="rect4300"
       style="fill:#939393;fill-opacity:0.52307697;stroke:#000000;stroke-width:1.10296082;stroke-linejoin:bevel;stroke-miterlimit:4;stroke-dasharray:none;stroke-opacity:1" />
    <rect
       style="fill:#939393;fill-opacity:0.52307697;stroke:#000000;stroke-width:1.10296082;stroke-linejoin:bevel;stroke-miterlimit:4;stroke-dasharray:none;stroke-opacity:1"
       id="rect4302"
       width="49.834038"
       height="6.9511218"
       x="219.85095"
       y="346.46506" />
    <rect
       y="360.36728"
       x="219.85095"
       height="6.9511218"
       width="49.834038"
       id="rect4304"
       style="fill:#939393;fill-opacity:0.52307697;stroke:#000000;stroke-width:1.10296082;stroke-linejoin:bevel;stroke-miterlimit:4;stroke-dasharray:none;stroke-opacity:1" />
    <rect
       y="249.14937"
       x="219.85095"
       height="6.9511218"
       width="49.834038"
       id="rect4306"
       style="fill:#939393;fill-opacity:0.52307697;stroke:#000000;stroke-width:1.10296082;stroke-linejoin:bevel;stroke-miterlimit:4;stroke-dasharray:none;stroke-opacity:1" />
    <path
       inkscape:connector-curvature="0"
       id="path4308"
       d="m 274.76796,232.7339 0,10 -60,0"
       style="fill:none;fill-rule:evenodd;stroke:#000000;stroke-width:1px;stroke-linecap:butt;stroke-linejoin:miter;stroke-opacity:1" />
    <rect
       style="fill:#939393;fill-opacity:0.52307697;stroke:#000000;stroke-width:0.93699998;stroke-linejoin:bevel;stroke-miterlimit:4;stroke-dasharray:none;stroke-opacity:1"
       id="rect4310"
       width="70"
       height="20"
       x="209.76797"
       y="372.73386" />
    <path
       style="fill:none;fill-rule:evenodd;stroke:#000000;stroke-width:2.29999995;stroke-linecap:butt;stroke-linejoin:miter;stroke-miterlimit:4;stroke-dasharray:none;stroke-opacity:1"
       d="m 271.91082,382.01961 67.85714,-109.28571 90,90 20,50"
       id="path4312"
       inkscape:connector-curvature="0"
       sodipodi:nodetypes="cccc" />
    <path
       style="fill:none;fill-rule:evenodd;stroke:#000000;stroke-width:2.29999995;stroke-linecap:butt;stroke-linejoin:miter;stroke-miterlimit:4;stroke-dasharray:none;stroke-opacity:1"
       d="m 258.69654,378.80533 56.07142,-101.78572 62.14286,105.71429 8.57143,50.71428"
       id="path4312-5"
       inkscape:connector-curvature="0"
       sodipodi:nodetypes="cccc" />
    <path
       inkscape:connector-curvature="0"
       id="path4331"
       d="m 210.94631,382.37675 -59.28571,-110.35714 -89.999995,90 -20,50"
       style="fill:none;fill-rule:evenodd;stroke:#000000;stroke-width:2.29999995;stroke-linecap:butt;stroke-linejoin:miter;stroke-miterlimit:4;stroke-dasharray:none;stroke-opacity:1"
       sodipodi:nodetypes="cccc" />
    <path
       inkscape:connector-curvature="0"
       id="path4333"
       d="M 225.94631,382.37675 170.23202,274.16247 97.374889,386.30532 88.089179,439.16247"
       style="fill:none;fill-rule:evenodd;stroke:#000000;stroke-width:2.29999995;stroke-linecap:butt;stroke-linejoin:miter;stroke-miterlimit:4;stroke-dasharray:none;stroke-opacity:1"
       sodipodi:nodetypes="cccc" />
  </g>
</svg>
