<?xml version="1.0" encoding="UTF-8" standalone="no"?>
<!-- Created with Inkscape (http://www.inkscape.org/) -->

<svg
   xmlns:dc="http://purl.org/dc/elements/1.1/"
   xmlns:cc="http://creativecommons.org/ns#"
   xmlns:rdf="http://www.w3.org/1999/02/22-rdf-syntax-ns#"
   xmlns:svg="http://www.w3.org/2000/svg"
   xmlns="http://www.w3.org/2000/svg"
   xmlns:sodipodi="http://sodipodi.sourceforge.net/DTD/sodipodi-0.dtd"
   xmlns:inkscape="http://www.inkscape.org/namespaces/inkscape"
   width="210mm"
   height="297mm"
   viewBox="0 0 744.09448819 1052.3622047"
   id="svg2"
   version="1.1"
   inkscape:version="0.91 r13725"
   sodipodi:docname="banner.svg">
  <defs
     id="defs4">
    <inkscape:perspective
       sodipodi:type="inkscape:persp3d"
       inkscape:vp_x="80.000001 : 540.00001 : 1"
       inkscape:vp_y="2.5810739e-06 : 1000 : 0"
       inkscape:vp_z="743.24227 : 526.60084 : 1"
       inkscape:persp3d-origin="371.195 : 351.20714 : 1"
       id="perspective6049" />
    <marker
       inkscape:stockid="TriangleInL"
       orient="auto"
       refY="0.0"
       refX="0.0"
       id="TriangleInL"
       style="overflow:visible"
       inkscape:isstock="true">
      <path
         id="path5178"
         d="M 5.77,0.0 L -2.88,5.0 L -2.88,-5.0 L 5.77,0.0 z "
         style="fill-rule:evenodd;stroke:#000000;stroke-width:1pt;stroke-opacity:1;fill:#2773ff;fill-opacity:1"
         transform="scale(-0.8)" />
    </marker>
    <marker
       inkscape:stockid="Arrow2Lstart"
       orient="auto"
       refY="0.0"
       refX="0.0"
       id="Arrow2Lstart"
       style="overflow:visible"
       inkscape:isstock="true">
      <path
         id="path5063"
         style="fill-rule:evenodd;stroke-width:0.625;stroke-linejoin:round;stroke:#000000;stroke-opacity:1;fill:#000000;fill-opacity:1"
         d="M 8.7185878,4.0337352 L -2.2072895,0.016013256 L 8.7185884,-4.0017078 C 6.9730900,-1.6296469 6.9831476,1.6157441 8.7185878,4.0337352 z "
         transform="scale(1.1) translate(1,0)" />
    </marker>
    <filter
       color-interpolation-filters="sRGB"
       id="_drop-shadow">
      <feGaussianBlur
         id="feGaussianBlur7"
         stdDeviation="1"
         result="blur-out"
         in="SourceAlpha" />
      <feBlend
         id="feBlend9"
         mode="normal"
         in2="blur-out"
         in="SourceGraphic" />
    </filter>
    <linearGradient
       y2="63.996321"
       x2="0.00043946349"
       y1="-0.00059563986"
       x1="0.00043946349"
       id="coin-gradient"
       gradientTransform="matrix(7.7269559,-2.0704316,2.0706731,7.7278571,-17.030032,649.60887)"
       gradientUnits="userSpaceOnUse">
      <stop
         id="stop12"
         style="stop-color:#f9aa4b"
         offset="0%" />
      <stop
         id="stop14"
         style="stop-color:#f7931a"
         offset="100%" />
    </linearGradient>
  </defs>
  <sodipodi:namedview
     id="base"
     pagecolor="#ffffff"
     bordercolor="#666666"
     borderopacity="1.0"
     inkscape:pageopacity="0.0"
     inkscape:pageshadow="2"
     inkscape:zoom="0.7"
     inkscape:cx="382.42535"
     inkscape:cy="540.9384"
     inkscape:document-units="px"
     inkscape:current-layer="layer1"
     showgrid="true"
     inkscape:window-width="1918"
     inkscape:window-height="1014"
     inkscape:window-x="0"
     inkscape:window-y="28"
     inkscape:window-maximized="1">
    <inkscape:grid
       type="xygrid"
       id="grid4201" />
  </sodipodi:namedview>
  <metadata
     id="metadata7">
    <rdf:RDF>
      <cc:Work
         rdf:about="">
        <dc:format>image/svg+xml</dc:format>
        <dc:type
           rdf:resource="http://purl.org/dc/dcmitype/StillImage" />
        <dc:title />
      </cc:Work>
    </rdf:RDF>
  </metadata>
  <g
     inkscape:label="Layer 1"
     inkscape:groupmode="layer"
     id="layer1">
    <g
       id="g4193" />
    <g
       id="g4221" />
    <rect
       sodipodi:insensitive="true"
       y="-7.6377954"
       x="0"
       height="1060"
       width="740"
       id="rect7019"
       style="fill:#f89d2f;fill-opacity:1;stroke:#f89d2f;stroke-width:24.10000038;stroke-linejoin:bevel;stroke-miterlimit:4;stroke-dasharray:none;stroke-opacity:1" />
    <g
       id="g4254"
       transform="matrix(0.56043956,0,0,0.56043956,14.107145,17.659947)">
      <g
         style="stroke-width:1;stroke-linecap:square;stroke-linejoin:miter;stroke-miterlimit:10;stroke-dasharray:none;stroke-dashoffset:0"
         id="misc"
         transform="translate(-15.327469,155.22702)" />
      <g
         style="fill:#0089a2;fill-opacity:1"
         id="g4142"
         transform="matrix(4.6609009,-0.01773206,0.01773206,4.6609009,-810.89949,-575.50066)">
        <g
           style="fill:#0089a2;fill-opacity:1;stroke-width:1;stroke-linecap:square;stroke-linejoin:miter;stroke-miterlimit:10;stroke-dasharray:none;stroke-dashoffset:0"
           id="g21"
           transform="scale(0.34217,0.34217)">
          <clipPath
             id="clip2">
            <path
               id="path24"
               d="m 0,0 0,737 1429,0 0,-737 z"
               inkscape:connector-curvature="0" />
          </clipPath>
          <g
             style="fill:#0089a2;fill-opacity:1"
             id="g26"
             clip-path="url(#clip2)">
            <g
               style="fill:#0089a2;fill-opacity:1;fill-rule:nonzero;stroke:none"
               id="g28">
              <path
                 style="fill:#0089a2;fill-opacity:1"
                 id="path30"
                 d="M 578.84,417.8 559,534 l 99,-64 -75.13,27.81 z"
                 inkscape:connector-curvature="0" />
            </g>
          </g>
        </g>
        <g
           style="fill:#0089a2;fill-opacity:1;stroke-width:1;stroke-linecap:square;stroke-linejoin:miter;stroke-miterlimit:10;stroke-dasharray:none;stroke-dashoffset:0"
           id="g32"
           transform="scale(0.34217,0.34217)">
          <clipPath
             id="clip3">
            <path
               id="path35"
               d="m 0,0 0,737 1429,0 0,-737 z"
               inkscape:connector-curvature="0" />
          </clipPath>
          <g
             style="fill:#0089a2;fill-opacity:1"
             id="g37"
             clip-path="url(#clip3)">
            <g
               style="fill:#0089a2;fill-opacity:1;fill-rule:nonzero;stroke:none"
               id="g39">
              <path
                 style="fill:#0089a2;fill-opacity:1"
                 id="path41"
                 d="M 592.27,481.94 702.83,441.02 597.9,387.28 659.55,438.44 Z"
                 inkscape:connector-curvature="0" />
            </g>
          </g>
        </g>
        <g
           style="fill:#0089a2;fill-opacity:1;stroke-width:1;stroke-linecap:square;stroke-linejoin:miter;stroke-miterlimit:10;stroke-dasharray:none;stroke-dashoffset:0"
           id="g43"
           transform="scale(0.34217,0.34217)">
          <clipPath
             id="clip4">
            <path
               id="path46"
               d="m 0,0 0,737 1429,0 0,-737 z"
               inkscape:connector-curvature="0" />
          </clipPath>
          <g
             style="fill:#0089a2;fill-opacity:1"
             id="g48"
             clip-path="url(#clip4)">
            <g
               style="fill:#0089a2;fill-opacity:1;fill-rule:nonzero;stroke:none"
               id="g50">
              <path
                 style="fill:#0089a2;fill-opacity:1"
                 id="path52"
                 d="m 641.11,438.23 -90.72,-75.28 5.93,117.74 13.48,-78.98 z"
                 inkscape:connector-curvature="0" />
            </g>
          </g>
        </g>
      </g>
      <text
         style="font-style:normal;font-variant:normal;font-weight:600;font-stretch:normal;font-size:56px;line-height:125%;font-family:Raleway;-inkscape-font-specification:'Raleway Semi-Bold';text-align:start;letter-spacing:0px;word-spacing:0px;writing-mode:lr-tb;text-anchor:start;fill:#000000;fill-opacity:1;stroke:none"
         xml:space="preserve"
         id="text3013"
         y="355.85861"
         x="33.264282"
         sodipodi:linespacing="125%"><tspan
           id="tspan3015"
           y="355.85861"
           x="33.264282" /></text>
      <text
         style="font-style:normal;font-variant:normal;font-weight:600;font-stretch:normal;font-size:56px;line-height:125%;font-family:Raleway;-inkscape-font-specification:'Raleway Semi-Bold';text-align:start;letter-spacing:0px;word-spacing:0px;writing-mode:lr-tb;text-anchor:start;fill:#000000;fill-opacity:1;stroke:none"
         xml:space="preserve"
         id="text3017"
         y="348.91693"
         x="20.76926"
         sodipodi:linespacing="125%"><tspan
           id="tspan3019"
           y="348.91693"
           x="20.76926" /></text>
      <text
         style="font-style:normal;font-variant:normal;font-weight:600;font-stretch:normal;font-size:65px;line-height:125%;font-family:Raleway;-inkscape-font-specification:'Raleway Semi-Bold';text-align:start;letter-spacing:0px;word-spacing:0px;writing-mode:lr-tb;text-anchor:start;fill:#4d4d4d;fill-opacity:1;stroke:none"
         xml:space="preserve"
         id="text3021"
         y="352.38776"
         x="44.370968"
         sodipodi:linespacing="125%"><tspan
           id="tspan3023"
           y="352.38776"
           x="44.370968" /></text>
      <g
         style="font-style:normal;font-variant:normal;font-weight:600;font-stretch:normal;font-size:65px;line-height:125%;font-family:Raleway;-inkscape-font-specification:'Raleway Semi-Bold';text-align:center;letter-spacing:0px;word-spacing:0px;writing-mode:lr-tb;text-anchor:middle;fill:#666666;fill-opacity:1;stroke:none"
         id="text3029">
        <path
           id="path3274"
           d="m 0,314.72086 43.671875,0 0,9.23584 -15.710449,0 0,38.14941 -12.219238,0 0,-38.14941 -15.742188,0 0,-9.23584"
           inkscape:connector-curvature="0" />
        <path
           id="path3276"
           d="m 67.316895,335.7316 c 2.560195,2e-5 4.390434,-0.47605 5.490722,-1.42822 1.12139,-0.95212 1.682099,-2.51788 1.682129,-4.69727 -3e-5,-2.15817 -0.560739,-3.70276 -1.682129,-4.63379 -1.100288,-0.93095 -2.930527,-1.39645 -5.490722,-1.39648 l -5.141602,0 0,12.15576 5.141602,0 m -5.141602,8.44238 0,17.93213 -12.219238,0 0,-47.38525 18.662109,0 c 6.241831,4e-5 10.812139,1.04741 13.710938,3.14209 2.91988,2.09476 4.37984,5.40612 4.379882,9.93408 -4.2e-5,3.13154 -0.76176,5.70234 -2.285156,7.7124 -1.502317,2.01012 -3.776892,3.49123 -6.82373,4.44336 1.671514,0.38088 3.163212,1.24839 4.475097,2.60254 1.332969,1.33302 2.676555,3.36427 4.030762,6.09375 l 6.633301,13.45703 -13.012696,0 -5.776367,-11.7749 c -1.163765,-2.36978 -2.34866,-3.98843 -3.554687,-4.85596 -1.184921,-0.8675 -2.771834,-1.30125 -4.760742,-1.30127 l -3.459473,0"
           inkscape:connector-curvature="0" />
        <path
           id="path3278"
           d="m 121.62109,322.7189 c -3.72398,4e-5 -6.61216,1.37537 -8.66455,4.12598 -2.05242,2.75068 -3.07863,6.62275 -3.07861,11.61621 -2e-5,4.97235 1.02619,8.83384 3.07861,11.58447 2.05239,2.75066 4.94057,4.12599 8.66455,4.12598 3.74509,1e-5 6.64385,-1.37532 8.69629,-4.12598 2.05237,-2.75063 3.07858,-6.61212 3.07862,-11.58447 -4e-5,-4.99346 -1.02625,-8.86553 -3.07862,-11.61621 -2.05244,-2.75061 -4.9512,-4.12594 -8.69629,-4.12598 m 0,-8.85498 c 7.61716,5e-5 13.58395,2.17941 17.90039,6.53809 4.31636,4.35876 6.47456,10.37845 6.47461,18.05908 -5e-5,7.65952 -2.15825,13.66863 -6.47461,18.02734 -4.31644,4.35873 -10.28323,6.53809 -17.90039,6.53809 -7.59604,0 -13.56284,-2.17936 -17.90039,-6.53809 -4.316409,-4.35871 -6.474609,-10.36782 -6.474606,-18.02734 -3e-6,-7.68063 2.158197,-13.70032 6.474606,-18.05908 4.33755,-4.35868 10.30435,-6.53804 17.90039,-6.53809"
           inkscape:connector-curvature="0" />
        <path
           id="path3280"
           d="m 155.2002,314.72086 12.21923,0 0,42.7832 c -1e-5,5.90332 -1.60809,10.31493 -4.82422,13.23486 -3.19499,2.91991 -8.04037,4.37987 -14.53613,4.37988 l -2.47558,0 0,-9.23583 1.90429,0 c 2.53906,-10e-6 4.45394,-0.70883 5.74463,-2.12647 1.31185,-1.41764 1.96777,-3.50179 1.96778,-6.25244 l 0,-42.7832"
           inkscape:connector-curvature="0" />
        <path
           id="path3282"
           d="m 212.42432,316.21255 0,10.0293 c -2.60258,-1.1637 -5.14164,-2.04179 -7.61719,-2.63428 -2.47562,-0.5924 -4.81367,-0.88863 -7.01416,-0.88867 -2.91994,4e-5 -5.07815,0.40206 -6.47461,1.20606 -1.3965,0.80407 -2.09474,2.05244 -2.09473,3.74511 -1e-5,1.26957 0.46548,2.26403 1.39649,2.9834 0.95213,0.69828 2.66599,1.3013 5.1416,1.80908 l 5.20508,1.04737 c 5.26852,1.05797 9.01363,2.66604 11.23535,4.82422 2.22164,2.15822 3.33248,5.22625 3.33252,9.2041 -4e-5,5.22624 -1.55522,9.11947 -4.66553,11.67969 -3.08923,2.53906 -7.81823,3.80859 -14.18701,3.80859 -3.00458,0 -6.01971,-0.28565 -9.04541,-0.85693 -3.02573,-0.57129 -6.05144,-1.41765 -9.07715,-2.53907 l 0,-10.31494 c 3.02571,1.60809 5.94563,2.82472 8.75977,3.6499 2.83527,0.80405 5.56476,1.20607 8.18847,1.20606 2.66599,1e-5 4.70782,-0.44433 6.12549,-1.33301 1.41761,-0.88866 2.12644,-2.15819 2.12647,-3.80859 -3e-5,-1.48111 -0.48669,-2.62368 -1.45997,-3.42774 -0.95217,-0.80402 -2.86705,-1.52342 -5.74462,-2.1582 l -4.72901,-1.04736 c -4.7396,-1.01561 -8.20964,-2.63426 -10.41015,-4.85596 -2.17937,-2.22165 -3.26905,-5.21563 -3.26905,-8.98193 0,-4.71839 1.52343,-8.34713 4.57032,-10.88623 3.04686,-2.53902 7.42674,-3.80855 13.13964,-3.8086 2.60252,5e-5 5.27911,0.20106 8.02979,0.60303 2.75062,0.38091 5.59648,0.96277 8.5376,1.7456"
           inkscape:connector-curvature="0" />
        <path
           id="path3284"
           d="m 220.64453,314.72086 43.67188,0 0,9.23584 -15.71045,0 0,38.14941 -12.21924,0 0,-38.14941 -15.74219,0 0,-9.23584"
           inkscape:connector-curvature="0" />
        <path
           id="path3286"
           d="m 270.60059,314.72086 32.97607,0 0,9.23584 -20.75684,0 0,8.82324 19.51905,0 0,9.23584 -19.51905,0 0,10.85449 21.45508,0 0,9.23584 -33.67431,0 0,-47.38525"
           inkscape:connector-curvature="0" />
        <path
           id="path3288"
           d="m 315.03418,314.72086 13.64746,0 17.23389,32.5 0,-32.5 11.58447,0 0,47.38525 -13.64746,0 -17.23389,-32.5 0,32.5 -11.58447,0 0,-47.38525"
           inkscape:connector-curvature="0" />
      </g>
    </g>
    <text
       xml:space="preserve"
       style="font-style:normal;font-weight:normal;font-size:17.5px;line-height:125%;font-family:sans-serif;letter-spacing:0px;word-spacing:0px;fill:#000000;fill-opacity:1;stroke:none;stroke-width:1px;stroke-linecap:butt;stroke-linejoin:miter;stroke-opacity:1"
       x="60"
       y="252.3622"
       id="text8471"
       sodipodi:linespacing="125%"><tspan
         sodipodi:role="line"
         id="tspan8473"
         x="60"
         y="252.3622" /></text>
    <text
       xml:space="preserve"
       style="font-style:normal;font-weight:normal;font-size:17.5px;line-height:125%;font-family:sans-serif;letter-spacing:0px;word-spacing:0px;fill:#666666;fill-opacity:1;stroke:none;stroke-width:1px;stroke-linecap:butt;stroke-linejoin:miter;stroke-opacity:1"
       x="134.61491"
       y="334.1969"
       id="text9076"
       sodipodi:linespacing="125%"><tspan
         sodipodi:role="line"
         id="tspan9078"
         x="134.61491"
         y="334.1969"
         style="font-style:normal;font-variant:normal;font-weight:normal;font-stretch:normal;font-size:70px;font-family:'Source Code Pro';-inkscape-font-specification:'Source Code Pro';fill:#666666;fill-opacity:1">Akadémia </tspan><tspan
         sodipodi:role="line"
         x="134.61491"
         y="421.6969"
         style="font-style:normal;font-variant:normal;font-weight:normal;font-stretch:normal;font-size:70px;font-family:'Source Code Pro';-inkscape-font-specification:'Source Code Pro';fill:#666666;fill-opacity:1"
         id="tspan9080">   Trojstenu</tspan></text>
  </g>
</svg>
