<?xml version="1.0" encoding="UTF-8" standalone="no"?>
<!-- Created with Inkscape (http://www.inkscape.org/) -->

<svg
   xmlns:dc="http://purl.org/dc/elements/1.1/"
   xmlns:cc="http://creativecommons.org/ns#"
   xmlns:rdf="http://www.w3.org/1999/02/22-rdf-syntax-ns#"
   xmlns:svg="http://www.w3.org/2000/svg"
   xmlns="http://www.w3.org/2000/svg"
   xmlns:sodipodi="http://sodipodi.sourceforge.net/DTD/sodipodi-0.dtd"
   xmlns:inkscape="http://www.inkscape.org/namespaces/inkscape"
   width="637.56165"
   height="649.28583"
   id="svg2"
   version="1.1"
   inkscape:version="0.48.5 r10040"
   sodipodi:docname="Logo.svg">
  <defs
     id="defs4" />
  <sodipodi:namedview
     id="base"
     pagecolor="#ffffff"
     bordercolor="#666666"
     borderopacity="1.0"
     inkscape:pageopacity="0.0"
     inkscape:pageshadow="2"
     inkscape:zoom="0.49497475"
     inkscape:cx="219.9904"
     inkscape:cy="405.07775"
     inkscape:document-units="px"
     inkscape:current-layer="layer1"
     showgrid="true"
     inkscape:snap-grids="false"
     inkscape:snap-nodes="true"
     inkscape:object-paths="true"
     inkscape:snap-intersection-paths="true"
     inkscape:snap-smooth-nodes="true"
     inkscape:object-nodes="true"
     inkscape:snap-midpoints="false"
     inkscape:snap-page="false"
     inkscape:window-width="1366"
     inkscape:window-height="706"
     inkscape:window-x="-8"
     inkscape:window-y="-8"
     inkscape:window-maximized="1"
     fit-margin-top="0"
     fit-margin-left="0"
     fit-margin-right="0"
     fit-margin-bottom="0">
    <inkscape:grid
       type="xygrid"
       id="grid2985"
       empspacing="5"
       visible="true"
       enabled="true"
       snapvisiblegridlinesonly="true"
       originx="-141.42862px"
       originy="-52.667041px" />
  </sodipodi:namedview>
  <metadata
     id="metadata7">
    <rdf:RDF>
      <cc:Work
         rdf:about="">
        <dc:format>image/svg+xml</dc:format>
        <dc:type
           rdf:resource="http://purl.org/dc/dcmitype/StillImage" />
        <dc:title />
      </cc:Work>
    </rdf:RDF>
  </metadata>
  <g
     inkscape:label="Layer 1"
     inkscape:groupmode="layer"
     id="layer1"
     transform="translate(-141.42862,-350.40934)">
    <g
       id="g3008"
       transform="matrix(0.88686254,-0.46203337,0.46203337,0.88686254,-260.51409,292.98429)">
      <path
         sodipodi:nodetypes="ccccccccc"
         inkscape:connector-curvature="0"
         id="path2987"
         d="M 877.93802,534.10939 C 751.36482,481.83075 620.92813,407.64801 492.35955,344.05655 377.41369,430.38028 248.99087,551.86019 148.67397,598.82029 c 48.85637,3.70656 122.79789,60.50673 158.2884,79.41891 -39.02479,-14.98151 -125.56748,-50.56581 -168.94646,-71.4171 5.38167,-21.55756 234.05291,-187.43873 353.99091,-283.03996 150.59225,79.26402 387.90611,192.99052 397.82015,216.35021 -24.06899,20.25284 -108.87864,76.23382 -150.6959,98.61026 45.48483,-41.29381 107.17112,-96.52456 138.80695,-104.63322 z"
         style="fill:#000000;stroke:#000000;stroke-width:1.33275473;stroke-linecap:butt;stroke-linejoin:miter;stroke-miterlimit:4;stroke-opacity:1;stroke-dasharray:none" />
      <g
         transform="matrix(1.3273468,-0.1199399,0.1199399,1.3273468,-113.23947,-115.9656)"
         id="g3878">
        <path
           style="fill:#000000;stroke:#000000;stroke-width:1px;stroke-linecap:butt;stroke-linejoin:miter;stroke-opacity:1"
           d="m 280,218.38019 c -4.21326,46.66667 -6.45939,119.04762 0,165.71429 6.45939,-46.66667 4.21326,-119.04762 0,-165.71429 z"
           id="path3820"
           inkscape:connector-curvature="0"
           sodipodi:nodetypes="ccc"
           transform="translate(0,308.2677)" />
        <path
           style="fill:#000000;stroke:#000000;stroke-width:1px;stroke-linecap:butt;stroke-linejoin:miter;stroke-opacity:1"
           d="m 280,218.38019 c 104.20942,-71.54868 197.91292,-59.63528 285,0 -87.08708,-43.96069 -180.79058,-51.16342 -285,0 z"
           id="path3858"
           inkscape:connector-curvature="0"
           sodipodi:nodetypes="ccc"
           transform="translate(0,308.2677)" />
      </g>
      <path
         sodipodi:nodetypes="ccc"
         inkscape:connector-curvature="0"
         id="path3820-2"
         d="m 724.14372,751.40633 c -0.005,-62.4482 -5.7047,-158.79222 -19.87575,-219.96034 -2.97666,62.7176 8.6861,158.52282 19.87575,219.96034 z"
         style="fill:#000000;stroke:#000000;stroke-width:1.33275473px;stroke-linecap:butt;stroke-linejoin:miter;stroke-opacity:1" />
      <path
         sodipodi:nodetypes="ccc"
         inkscape:connector-curvature="0"
         id="path3858-4"
         d="M 724.05917,750.47055 C 577.15559,667.9995 454.20744,695.05151 345.76533,784.65342 456.08745,715.85712 579.60059,695.05781 724.05917,750.47055 z"
         style="fill:#000000;stroke:#000000;stroke-width:1.33275473px;stroke-linecap:butt;stroke-linejoin:miter;stroke-opacity:1" />
      <path
         sodipodi:nodetypes="ccccc"
         inkscape:connector-curvature="0"
         id="path3916"
         d="M 94.225595,845.08186 C 102.4191,805.25771 161.91475,712.22195 197.86553,643.6074 c -31.23629,63.50835 -67.70642,148.13355 -94.34109,195.55251 9.69302,-5.3512 18.15128,-0.88373 27.21776,-1.25276 -28.84677,9.60076 -30.787157,7.56864 -36.516605,7.17471 z"
         style="fill:#000000;stroke:#000000;stroke-width:1.13876224px;stroke-linecap:butt;stroke-linejoin:miter;stroke-opacity:1" />
      <path
         sodipodi:nodetypes="ccccc"
         inkscape:connector-curvature="0"
         id="path3916-5"
         d="m 145.72213,871.83969 c 27.63395,-29.82385 68.72497,-132.32708 103.63993,-201.47447 -33.50238,62.34266 -81.14064,141.22289 -104.22955,190.46581 -1.28315,-10.99742 -9.83618,-15.28068 -14.80819,-22.87121 8.96406,29.05093 11.74562,29.44781 15.39781,33.87987 z"
         style="fill:#000000;stroke:#000000;stroke-width:1.13876224px;stroke-linecap:butt;stroke-linejoin:miter;stroke-opacity:1" />
    </g>
  </g>
</svg>
