<?xml version="1.0" encoding="UTF-8" standalone="no"?>
<!-- Created with Inkscape (http://www.inkscape.org/) -->

<svg
   xmlns:dc="http://purl.org/dc/elements/1.1/"
   xmlns:cc="http://creativecommons.org/ns#"
   xmlns:rdf="http://www.w3.org/1999/02/22-rdf-syntax-ns#"
   xmlns:svg="http://www.w3.org/2000/svg"
   xmlns="http://www.w3.org/2000/svg"
   xmlns:sodipodi="http://sodipodi.sourceforge.net/DTD/sodipodi-0.dtd"
   xmlns:inkscape="http://www.inkscape.org/namespaces/inkscape"
   width="639.51715"
   height="647.3407"
   id="svg2"
   version="1.1"
   inkscape:version="0.48.5 r10040"
   sodipodi:docname="Logo.svg">
  <defs
     id="defs4" />
  <sodipodi:namedview
     id="base"
     pagecolor="#ffffff"
     bordercolor="#666666"
     borderopacity="1.0"
     inkscape:pageopacity="0.0"
     inkscape:pageshadow="2"
     inkscape:zoom="0.49497475"
     inkscape:cx="86.302349"
     inkscape:cy="319.59131"
     inkscape:document-units="px"
     inkscape:current-layer="layer1"
     showgrid="true"
     inkscape:snap-grids="false"
     inkscape:snap-nodes="true"
     inkscape:object-paths="true"
     inkscape:snap-intersection-paths="true"
     inkscape:snap-smooth-nodes="true"
     inkscape:object-nodes="true"
     inkscape:snap-midpoints="false"
     inkscape:snap-page="false"
     inkscape:window-width="1366"
     inkscape:window-height="706"
     inkscape:window-x="-8"
     inkscape:window-y="-8"
     inkscape:window-maximized="1"
     fit-margin-top="0"
     fit-margin-left="0"
     fit-margin-right="0"
     fit-margin-bottom="0">
    <inkscape:grid
       type="xygrid"
       id="grid2985"
       empspacing="5"
       visible="true"
       enabled="true"
       snapvisiblegridlinesonly="true"
       originx="-140.74316px"
       originy="-57.341275px" />
  </sodipodi:namedview>
  <metadata
     id="metadata7">
    <rdf:RDF>
      <cc:Work
         rdf:about="">
        <dc:format>image/svg+xml</dc:format>
        <dc:type
           rdf:resource="http://purl.org/dc/dcmitype/StillImage" />
        <dc:title />
      </cc:Work>
    </rdf:RDF>
  </metadata>
  <g
     inkscape:label="Layer 1"
     inkscape:groupmode="layer"
     id="layer1"
     transform="translate(-140.74316,-347.68022)">
    <g
       id="g3954"
       transform="matrix(1.3327547,0,0,1.3327547,-46.832958,-115.69225)">
      <g
         transform="matrix(0.84446929,-0.53560397,0.53560397,0.84446929,-281.03998,266.19758)"
         id="g3908">
        <path
           style="fill:#000000;stroke:#000000;stroke-width:1;stroke-linecap:butt;stroke-linejoin:miter;stroke-miterlimit:4;stroke-opacity:1;stroke-dasharray:none"
           d="M 704.26477,553.39301 C 613.20912,505.77934 520.74543,441.53628 428.96257,385.33402 c -91.72585,56.74639 -195.89669,138.8543 -274.03258,167.17281 36.25915,6.06886 87.67883,53.50744 112.92317,70.03664 -28.15086,-13.83054 -90.41975,-46.26579 -121.42806,-64.77672 5.47729,-15.74616 187.56006,-124.26503 283.64291,-187.60723 107.18244,69.40121 276.84323,170.41143 282.67445,188.53713 -19.35387,13.50931 -86.51062,49.61608 -119.27083,63.51387 36.77831,-27.78673 86.60475,-64.89427 110.79314,-68.81751 z"
           id="path2987"
           inkscape:connector-curvature="0"
           sodipodi:nodetypes="ccccccccc" />
        <g
           id="g3878">
          <path
             transform="translate(0,308.2677)"
             sodipodi:nodetypes="ccc"
             inkscape:connector-curvature="0"
             id="path3820"
             d="m 280,218.38019 c -4.21326,46.66667 -6.45939,119.04762 0,165.71429 6.45939,-46.66667 4.21326,-119.04762 0,-165.71429 z"
             style="fill:#000000;stroke:#000000;stroke-width:1px;stroke-linecap:butt;stroke-linejoin:miter;stroke-opacity:1" />
          <path
             transform="translate(0,308.2677)"
             sodipodi:nodetypes="ccc"
             inkscape:connector-curvature="0"
             id="path3858"
             d="m 280,218.38019 c 104.20942,-71.54868 197.91292,-59.63528 285,0 -87.08708,-43.96069 -180.79058,-51.16342 -285,0 z"
             style="fill:#000000;stroke:#000000;stroke-width:1px;stroke-linecap:butt;stroke-linejoin:miter;stroke-opacity:1" />
        </g>
        <path
           style="fill:#000000;stroke:#000000;stroke-width:1px;stroke-linecap:butt;stroke-linejoin:miter;stroke-opacity:1"
           d="m 567.19147,704.71471 c 4.21326,-46.66667 6.45939,-119.04762 0,-165.71429 -6.45939,46.66667 -4.21326,119.04762 0,165.71429 z"
           id="path3820-2"
           inkscape:connector-curvature="0"
           sodipodi:nodetypes="ccc" />
        <path
           style="fill:#000000;stroke:#000000;stroke-width:1px;stroke-linecap:butt;stroke-linejoin:miter;stroke-opacity:1"
           d="m 567.19147,704.00971 c -104.20942,-71.54868 -197.91292,-59.63528 -285,0 87.08708,-43.96069 180.79058,-51.16342 285,0 z"
           id="path3858-4"
           inkscape:connector-curvature="0"
           sodipodi:nodetypes="ccc" />
      </g>
      <path
         sodipodi:nodetypes="ccccc"
         inkscape:connector-curvature="0"
         id="path3916"
         d="m 193.91222,832.79075 c -8.20172,-29.38378 -0.437,-111.87966 0,-170 0.95604,53.09524 5.66776,122.0765 4.17184,162.85715 4.63074,-6.89732 11.80762,-6.8196 17.73032,-10.17766 -15.952,16.30675 -17.94414,15.61686 -21.90216,17.32051 z"
         style="fill:#000000;stroke:#000000;stroke-width:0.85444248px;stroke-linecap:butt;stroke-linejoin:miter;stroke-opacity:1" />
      <path
         sodipodi:nodetypes="ccccc"
         inkscape:connector-curvature="0"
         id="path3916-5"
         d="m 237.45579,832.96932 c 8.20173,-29.38378 0.437,-111.87966 0,-170 -0.95604,53.09524 -5.66776,122.0765 -4.17184,162.85715 -4.63073,-6.89732 -11.80762,-6.8196 -17.73031,-10.17766 15.952,16.30675 17.94414,15.61686 21.90215,17.32051 z"
         style="fill:#000000;stroke:#000000;stroke-width:0.85444248px;stroke-linecap:butt;stroke-linejoin:miter;stroke-opacity:1" />
    </g>
  </g>
</svg>
